<svg width="241" height="68" viewBox="0 0 241 68" fill="none" xmlns="http://www.w3.org/2000/svg">
<rect width="241" height="68" fill="white"/>
<path d="M32.0547 61.7422C37.2839 61.7422 41.0962 60.7301 43.5253 59.4818V50.1703C42.277 50.5752 40.7926 50.8788 39.1732 50.8788C36.508 50.8788 34.7536 49.9004 34.7536 46.7291V34.2126H43.5591V23.6866H34.7536V11.9798L15.5234 16.5343V23.6866H8.74225V34.2126H15.5234V48.9558C15.5234 58.6384 23.3167 61.7422 32.0547 61.7422Z" fill="black"/>
<path d="M48.316 61H67.58V23.6866H48.316V61ZM47.5401 15.421C47.5401 19.402 52.2295 21.8311 57.9986 21.8311C63.7339 21.8311 68.4234 19.402 68.4234 15.421C68.4234 11.4063 63.7339 8.97717 57.9986 8.97717C52.2295 8.97717 47.5401 11.4063 47.5401 15.421Z" fill="black"/>
<path d="M73.349 61H92.4105V40.0154C92.4105 36.4393 94.3673 34.9886 96.459 34.9886C98.517 34.9886 100.035 36.2368 100.035 39.4756V61H119.097V40.0154C119.097 36.4393 121.053 34.9886 123.179 34.9886C125.203 34.9886 126.721 36.2368 126.721 39.4756V61H145.783V37.5189C145.783 27.3302 140.486 22.5395 132.153 22.5395C125.54 22.5395 120.547 25.7446 117.983 30.5015C116.195 25.1373 112.113 22.5395 105.804 22.5395C99.2929 22.5395 94.3673 25.812 91.9045 30.4678V23.6866H73.349V61Z" fill="black"/>
<path d="M151.215 61H170.478V23.6866H151.215V61ZM150.439 15.421C150.439 19.402 155.128 21.8311 160.897 21.8311C166.632 21.8311 171.322 19.402 171.322 15.421C171.322 11.4063 166.632 8.97717 160.897 8.97717C155.128 8.97717 150.439 11.4063 150.439 15.421Z" fill="black"/>
<path d="M191.328 62.147C197.232 62.147 202.259 59.4818 205.228 55.5008V61H224.525V12.6208H205.228V29.2532C202.529 25.306 197.434 22.5395 191.632 22.5395C181.983 22.5395 175.033 29.1183 175.033 42.3433C175.033 55.6357 181.612 62.147 191.328 62.147ZM195.174 42.1746C195.174 36.1019 197.198 33.1668 200.437 33.1668C203.676 33.1668 205.801 36.1019 205.801 42.1746C205.801 48.2473 203.71 51.2836 200.437 51.2836C197.131 51.2836 195.174 48.2473 195.174 42.1746Z" fill="black"/>
</svg>
